<svg width="1440" height="860" viewBox="0 0 1440 860" fill="none" xmlns="http://www.w3.org/2000/svg">
<rect width="1440" height="860" fill="#E1E8ED"/>
<rect width="1440" height="5" fill="white" fill-opacity="0.2"/>
<path fill-rule="evenodd" clip-rule="evenodd" d="M387 267C416.271 267 440 243.271 440 214C440 184.729 416.271 161 387 161C357.729 161 334 184.729 334 214C334 243.271 357.729 267 387 267Z" fill="#F2F2F2"/>
<path fill-rule="evenodd" clip-rule="evenodd" d="M387 175C388.657 175 390 173.657 390 172C390 170.343 388.657 169 387 169C385.343 169 384 170.343 384 172C384 173.657 385.343 175 387 175Z" fill="black" fill-opacity="0.1"/>
<path fill-rule="evenodd" clip-rule="evenodd" d="M345 217C346.657 217 348 215.657 348 214C348 212.343 346.657 211 345 211C343.343 211 342 212.343 342 214C342 215.657 343.343 217 345 217Z" fill="black" fill-opacity="0.1"/>
<path fill-rule="evenodd" clip-rule="evenodd" d="M429 217C430.657 217 432 215.657 432 214C432 212.343 430.657 211 429 211C427.343 211 426 212.343 426 214C426 215.657 427.343 217 429 217Z" fill="black" fill-opacity="0.1"/>
<path fill-rule="evenodd" clip-rule="evenodd" d="M387 259C388.657 259 390 257.657 390 256C390 254.343 388.657 253 387 253C385.343 253 384 254.343 384 256C384 257.657 385.343 259 387 259Z" fill="black" fill-opacity="0.1"/>
<path fill-rule="evenodd" clip-rule="evenodd" d="M387 178L389 213H385L387 178Z" fill="#AFB9C5"/>
<path fill-rule="evenodd" clip-rule="evenodd" d="M404.698 231.698L386.314 216.142L389.142 213.314L404.698 231.698Z" fill="#AFB9C5"/>
<path fill-rule="evenodd" clip-rule="evenodd" d="M387 218C389.209 218 391 216.209 391 214C391 211.791 389.209 210 387 210C384.791 210 383 211.791 383 214C383 216.209 384.791 218 387 218Z" fill="#C5CFD6"/>
<g clip-path="url(#clip0_237_700)">
<path d="M1005 127.236L1073.96 103.87C1075.62 103.306 1077.43 103.306 1079.09 103.87L1242.13 159.117C1248.63 161.318 1253 167.413 1253 174.271V497" stroke="#CBCBCB" stroke-width="8"/>
<rect x="1223" y="496" width="59" height="7" rx="3" fill="#AFB9C5"/>
<path d="M969.499 116.335C982.386 103.447 1003.28 103.447 1016.17 116.335C1029.06 129.222 1029.06 150.116 1016.17 163.004L996.369 182.803L949.7 136.134L969.499 116.335Z" fill="#C5CFD6"/>
<path fill-rule="evenodd" clip-rule="evenodd" d="M969.228 163.527C982.115 176.414 994.62 184.804 997.159 182.265C999.697 179.727 991.308 167.222 978.42 154.335C965.533 141.447 953.028 133.058 950.49 135.596C947.951 138.135 956.341 150.64 969.228 163.527Z" fill="#F2F2F2"/>
</g>
<path fill-rule="evenodd" clip-rule="evenodd" d="M1324.39 647.137C1326.96 646.86 1329.71 646.958 1332.1 647.851C1337.18 649.75 1338.62 655.037 1338.55 659.333C1338.48 663.958 1337.36 669.009 1341.35 672.735C1343.19 674.448 1345.47 675.759 1347.27 677.504C1349.2 679.368 1350.71 681.501 1351.83 683.792C1353.88 687.999 1354.89 692.947 1353.01 697.361C1351.36 701.246 1347.2 704.754 1348.1 709.172C1349.04 713.782 1354.31 717.306 1357.61 720.739C1361.35 724.625 1364.79 729.59 1365.35 734.686C1365.89 739.569 1363.48 744.508 1359.77 748.199C1352.37 755.575 1341.25 759.19 1330.03 759.168C1325.27 759.158 1319.87 758.969 1315.76 756.715C1314.49 756.018 1313.82 755.237 1313.07 754.15C1312.39 753.176 1311.49 752.542 1310.46 751.853C1308.18 750.339 1306.54 748.298 1305.49 746.013C1301.42 737.14 1304.68 726.164 1310.38 718.284C1311.73 716.418 1312.83 714.621 1312.17 712.396C1311.49 710.073 1309.81 707.978 1308.32 705.982C1306.85 704.009 1305.17 702.126 1304.02 699.993C1302.82 697.758 1302.48 695.417 1302.69 692.971C1303.09 688.377 1305.34 684.137 1308.53 680.442C1311.6 676.882 1315.21 673.477 1315.22 668.813C1315.23 663.87 1311.48 659.473 1313.07 654.448C1313.74 652.367 1315.07 650.232 1317.21 648.985C1319.26 647.788 1321.98 647.397 1324.39 647.137Z" fill="#DDE3E9"/>
<path fill-rule="evenodd" clip-rule="evenodd" d="M1322.71 655.039C1322.76 654.375 1323.66 653.977 1324.36 654.15C1325.29 654.378 1325.27 655.14 1325.24 655.82C1325.17 657.907 1325.51 659.936 1326.08 661.962C1327.27 666.174 1329.46 670.055 1331.19 674.1C1332.92 678.143 1333.74 682.317 1332.72 686.594C1331.76 690.627 1330.26 694.556 1329.28 698.594C1328.41 702.153 1327.49 705.906 1328.81 709.456C1330.08 712.873 1332.88 715.656 1334.89 718.744C1339.07 725.137 1340.92 732.229 1341.17 739.527C1341.28 742.916 1341.18 746.336 1340.29 749.66C1339.77 751.574 1339.08 754.16 1337.22 755.482C1336.36 756.091 1334.89 756.302 1334.17 755.399C1333.49 754.553 1334.09 753.243 1334.3 752.341C1335.23 748.436 1335.42 744.445 1335.2 740.48C1334.98 736.639 1334.47 732.805 1333.09 729.137C1331.82 725.733 1329.88 722.676 1327.61 719.698C1325.29 716.663 1322.87 713.622 1321.91 710.027C1320.94 706.375 1321.73 702.659 1322.79 699.077C1323.91 695.288 1325.37 691.608 1326.89 687.922C1328.37 684.33 1328.89 680.931 1328.08 677.172C1326.46 669.744 1322.15 662.773 1322.71 655.039Z" fill="#C5CFD6"/>
<path fill-rule="evenodd" clip-rule="evenodd" d="M1392.24 656.149C1395.42 656.999 1398.58 658.371 1400.85 660.522C1405.67 665.096 1404.19 672.009 1401.53 677.059C1398.66 682.494 1394.32 687.956 1396.77 694.192C1397.89 697.059 1399.78 699.655 1400.85 702.544C1401.99 705.631 1402.48 708.846 1402.42 712.067C1402.3 717.984 1400.52 724.297 1395.66 728.656C1391.39 732.494 1384.41 734.736 1382.81 740.373C1381.14 746.254 1385.22 752.839 1387.03 758.411C1389.07 764.717 1390.13 772.164 1387.73 778.449C1385.43 784.472 1379.64 789.207 1373.08 791.875C1359.97 797.207 1344.75 796.387 1331.6 791.221C1326.02 789.028 1319.81 786.334 1316.34 781.785C1315.27 780.38 1314.95 779.148 1314.72 777.517C1314.51 776.055 1313.84 774.896 1313.04 773.606C1311.28 770.774 1310.58 767.608 1310.72 764.426C1311.28 752.068 1321.68 740.576 1333.09 733.868C1335.8 732.279 1338.17 730.661 1338.74 727.729C1339.33 724.669 1338.61 721.421 1338.07 718.378C1337.53 715.371 1336.69 712.376 1336.62 709.326C1336.55 706.131 1337.56 703.208 1339.28 700.413C1342.5 695.162 1347.69 691.18 1353.65 688.271C1359.39 685.469 1365.66 683.093 1368.47 677.582C1371.45 671.74 1369.69 664.821 1374.58 659.61C1376.6 657.453 1379.44 655.537 1382.71 655.043C1385.83 654.57 1389.25 655.349 1392.24 656.149Z" fill="#DDE3E9"/>
<path fill-rule="evenodd" clip-rule="evenodd" d="M1385.75 665.809C1386.2 665.045 1387.48 664.986 1388.2 665.516C1389.15 666.214 1388.67 667.108 1388.24 667.902C1386.91 670.339 1386.11 672.901 1385.57 675.563C1384.45 681.097 1384.7 686.703 1384.32 692.295C1383.94 697.882 1382.41 703.2 1378.68 707.796C1375.16 712.13 1371.06 716.087 1367.51 720.417C1364.39 724.233 1361.08 728.253 1360.51 733.065C1359.96 737.696 1361.58 742.284 1362.1 746.872C1363.18 756.369 1361.12 765.623 1357.07 774.38C1355.19 778.446 1353.04 782.449 1350.02 785.973C1348.28 788.002 1345.93 790.746 1342.97 791.451C1341.6 791.777 1339.76 791.348 1339.45 789.946C1339.16 788.631 1340.63 787.354 1341.42 786.385C1344.84 782.191 1347.43 777.552 1349.53 772.753C1351.56 768.105 1353.24 763.327 1353.81 758.349C1354.35 753.73 1353.9 749.216 1353.01 744.638C1352.1 739.974 1351.09 735.259 1352.1 730.558C1353.14 725.783 1356.27 721.748 1359.64 717.995C1363.2 714.025 1367.11 710.343 1371.07 706.677C1374.94 703.106 1377.57 699.323 1378.85 694.494C1381.38 684.955 1380.49 674.709 1385.75 665.809Z" fill="#C5CFD6"/>
<path fill-rule="evenodd" clip-rule="evenodd" d="M1293.94 691.235C1299.22 691.235 1303.87 693.703 1307.08 697.205C1310.83 701.305 1311.58 706.312 1313.11 711.198C1313.86 713.63 1315.17 716.044 1317.45 717.696C1319.53 719.198 1322.16 719.499 1324.65 720.233C1329.62 721.7 1333.63 725.234 1335.21 729.546C1337.15 734.806 1335.1 740.11 1335.45 745.441C1335.78 750.336 1341.26 753.39 1345.67 755.737C1350.02 758.051 1353.93 760.217 1355.24 764.725C1356.63 769.506 1357.1 774.843 1355.17 779.566C1351.97 787.43 1342.6 790.893 1333.54 791.43C1325.32 791.917 1314.99 791.152 1308.81 785.899C1305.12 782.755 1303.78 778.358 1303.95 773.983C1304.05 771.263 1304.66 768.568 1305.45 765.939C1306.02 764.076 1306.77 762.22 1306.99 760.295C1307.56 755.173 1302.19 754.189 1297.61 752.783C1291.79 750.995 1287.72 747.619 1284.89 742.916C1282.26 738.537 1281.15 733.621 1282.73 728.799C1283.54 726.337 1285 724.104 1286.99 722.204C1287.86 721.368 1289.09 720.67 1289.88 719.792C1290.62 718.971 1290.46 717.908 1290.2 716.947C1289.03 712.508 1285.37 708.833 1284.07 704.402C1282.89 700.403 1283.58 695.425 1287.74 692.845C1289.53 691.73 1291.74 691.248 1293.94 691.235Z" fill="#C5CFD6"/>
<path fill-rule="evenodd" clip-rule="evenodd" d="M1301.14 702.801C1306.75 708.057 1308.27 715.19 1308.72 722.102C1308.97 725.979 1308.71 730.067 1310 733.827C1311.11 737.045 1313.7 739.505 1316.37 741.83C1321.76 746.51 1327.76 751.268 1329.33 758.041C1330.26 762.016 1329.63 766.122 1330.91 770.053C1332.07 773.627 1334.12 777.137 1336.6 780.155C1338.6 782.585 1341.21 784.445 1343.4 786.71C1344.06 787.402 1345.02 788.42 1344.75 789.396C1344.42 790.539 1342.77 790.901 1341.6 790.721C1338.86 790.303 1336.56 788.003 1334.77 786.33C1332.15 783.885 1329.93 781.255 1328.13 778.305C1326.12 775.029 1324.51 771.553 1323.82 767.878C1323.1 764.064 1323.46 760.091 1321.82 756.431C1319.07 750.274 1312.4 746.64 1307.57 741.841C1301.56 735.861 1302.46 728.418 1303.07 721.062C1303.41 717.019 1303.75 712.454 1301.43 708.763C1300.54 707.354 1298.57 706.041 1298.19 704.439C1297.84 702.972 1299.74 701.489 1301.14 702.801Z" fill="#AFB9C5"/>
<path fill-rule="evenodd" clip-rule="evenodd" d="M1307.12 789.185C1307.12 819.248 1312.69 835 1342.1 835C1371.52 835 1377.09 819.248 1377.09 789.185H1307.12Z" fill="#89C5CC"/>
<rect x="139" y="644" width="38" height="9" rx="2" fill="#AFB9C5"/>
<path fill-rule="evenodd" clip-rule="evenodd" d="M156.217 571H158H159H160.783C161.301 586.419 163.707 601.085 168 615H174.5C183.06 615 190 621.94 190 630.5C190 639.06 183.06 646 174.5 646H141.5C132.94 646 126 639.06 126 630.5C126 621.94 132.94 615 141.5 615H149C155.44 594.128 156.217 571 156.217 571Z" fill="#DDE3E9"/>
<path fill-rule="evenodd" clip-rule="evenodd" d="M122.622 501.679C122.622 501.679 139.811 500 157 500C174.189 500 191.378 501.679 191.378 501.679L196 581.133C196 581.133 176.5 583 157 583C137.5 583 118 581.133 118 581.133L122.622 501.679Z" fill="#C5CFD6"/>
<path fill-rule="evenodd" clip-rule="evenodd" d="M95 757V675V653H116H199H220V675V757H199V675H116V757H95Z" fill="#F2F2F2"/>
<defs>
<clipPath id="clip0_237_700">
<rect width="336.649" height="412" fill="white" transform="translate(945 91)"/>
</clipPath>
</defs>
</svg>
