<svg width="337" height="412" viewBox="0 0 337 412" fill="none" xmlns="http://www.w3.org/2000/svg">
<g clip-path="url(#clip0_241_747)">
<path d="M60 36.2356L128.956 12.87C130.621 12.3057 132.426 12.3057 134.091 12.87L297.135 68.1174C303.63 70.3182 308 76.4133 308 83.271V406" stroke="#CBCBCB" stroke-width="8"/>
<rect x="278" y="405" width="59" height="7" rx="3" fill="#AFB9C5"/>
<path d="M24.4987 25.3345C37.386 12.4472 58.2805 12.4472 71.1678 25.3345C84.0551 38.2218 84.0551 59.1163 71.1678 72.0036L51.3688 91.8026L4.69974 45.1335L24.4987 25.3345Z" fill="#C5CFD6"/>
<path fill-rule="evenodd" clip-rule="evenodd" d="M24.228 72.5269C37.1153 85.4142 49.6203 93.8036 52.1587 91.2652C54.6971 88.7268 46.3077 76.2218 33.4204 63.3345C20.5331 50.4472 8.02809 42.0578 5.48968 44.5962C2.95127 47.1346 11.3407 59.6396 24.228 72.5269Z" fill="#F2F2F2"/>
</g>
<defs>
<clipPath id="clip0_241_747">
<rect width="336.649" height="412" fill="white"/>
</clipPath>
</defs>
</svg>
