<svg width="23" height="18" viewBox="0 0 23 18" fill="none" xmlns="http://www.w3.org/2000/svg">
<path d="M10.1444 12.8455L5.69994 9.03451M5.69994 9.03451L10.1444 5.22355M5.69994 9.03451H21.2555M15.6999 12.8455V13.7982C15.6999 14.5562 15.3487 15.2832 14.7236 15.8193C14.0985 16.3553 13.2507 16.6564 12.3666 16.6564H4.58883C3.70477 16.6564 2.85693 16.3553 2.2318 15.8193C1.60668 15.2832 1.25549 14.5562 1.25549 13.7982V4.27081C1.25549 3.51277 1.60668 2.78577 2.2318 2.24975C2.85693 1.71373 3.70477 1.4126 4.58883 1.4126H12.3666C13.2507 1.4126 14.0985 1.71373 14.7236 2.24975C15.3487 2.78577 15.6999 3.51277 15.6999 4.27081V5.22355" stroke="white" stroke-width="2" stroke-linecap="round" stroke-linejoin="round"/>
</svg>
