<svg width="20" height="20" viewBox="0 0 20 20" fill="none" xmlns="http://www.w3.org/2000/svg">
<path d="M4.16665 9.99996H4.17498H4.16665ZM9.99998 9.99996H10.0083H9.99998ZM15.8333 9.99996H15.8416H15.8333ZM4.99998 9.99996C4.99998 10.221 4.91218 10.4329 4.7559 10.5892C4.59962 10.7455 4.38766 10.8333 4.16665 10.8333C3.94563 10.8333 3.73367 10.7455 3.57739 10.5892C3.42111 10.4329 3.33331 10.221 3.33331 9.99996C3.33331 9.77895 3.42111 9.56698 3.57739 9.4107C3.73367 9.25442 3.94563 9.16663 4.16665 9.16663C4.38766 9.16663 4.59962 9.25442 4.7559 9.4107C4.91218 9.56698 4.99998 9.77895 4.99998 9.99996V9.99996ZM10.8333 9.99996C10.8333 10.221 10.7455 10.4329 10.5892 10.5892C10.433 10.7455 10.221 10.8333 9.99998 10.8333C9.77897 10.8333 9.567 10.7455 9.41072 10.5892C9.25444 10.4329 9.16665 10.221 9.16665 9.99996C9.16665 9.77895 9.25444 9.56698 9.41072 9.4107C9.567 9.25442 9.77897 9.16663 9.99998 9.16663C10.221 9.16663 10.433 9.25442 10.5892 9.4107C10.7455 9.56698 10.8333 9.77895 10.8333 9.99996V9.99996ZM16.6666 9.99996C16.6666 10.221 16.5788 10.4329 16.4226 10.5892C16.2663 10.7455 16.0543 10.8333 15.8333 10.8333C15.6123 10.8333 15.4003 10.7455 15.2441 10.5892C15.0878 10.4329 15 10.221 15 9.99996C15 9.77895 15.0878 9.56698 15.2441 9.4107C15.4003 9.25442 15.6123 9.16663 15.8333 9.16663C16.0543 9.16663 16.2663 9.25442 16.4226 9.4107C16.5788 9.56698 16.6666 9.77895 16.6666 9.99996V9.99996Z" stroke="black" stroke-width="2" stroke-linecap="round" stroke-linejoin="round"/>
</svg>
